<?xml version="1.0" encoding="UTF-8"?>
<svg width="120px" height="120px" viewBox="0 0 120 120" version="1.1" xmlns="http://www.w3.org/2000/svg" xmlns:xlink="http://www.w3.org/1999/xlink">
    <!-- Generator: Sketch 44.1 (41455) - http://www.bohemiancoding.com/sketch -->
    <title>headphones</title>
    <desc>Created with Sketch.</desc>
    <defs></defs>
    <g id="UI-Kit" stroke="none" stroke-width="1" fill="none" fill-rule="evenodd">
        <g id="headphones" fill-rule="nonzero" fill="#333333">
            <path d="M61.7793981,15.8 L58.2284213,15.8 C36.9491878,15.8 20.3,32.012338 20.3,52.7122304 L20.3,92.8755262 C20.3,99.1197661 25.3849297,104.2 31.6356808,104.2 C37.8874738,104.2 42.9733164,99.1197015 42.9733164,92.8755262 L42.9733164,74.807951 C42.9733164,68.5637757 37.8874738,63.4834773 31.6356808,63.4834773 C29.1706127,63.4834773 26.8205609,64.2862603 24.866038,65.7470291 L23.5871137,66.7028698 L23.5871137,52.7122304 C23.5871137,33.8555197 38.8152742,19.0826006 58.2284213,19.0826006 L61.7793981,19.0826006 C81.1875247,19.0826006 96.4128863,33.8563709 96.4128863,52.7122304 L96.4128863,66.7050799 L95.1335658,65.7477093 C93.1806674,64.2862714 90.8298767,63.4834773 88.3623644,63.4834773 C82.1116133,63.4834773 77.0266836,68.5637111 77.0266836,74.807951 L77.0266836,92.8755262 C77.0266836,99.1197661 82.1116133,104.2 88.3623644,104.2 C94.6141575,104.2 99.7,99.1197015 99.7,92.8755262 L99.7,52.7121934 C99.7009568,32.0124586 83.0548566,15.8 61.7793981,15.8 Z M31.6356808,66.7660779 C36.0749869,66.7660779 39.6862027,70.3729515 39.6862027,74.807951 L39.6862027,92.8755262 C39.6862027,97.3105258 36.0749869,100.917399 31.6356808,100.917399 C27.1973367,100.917399 23.5871137,97.3105103 23.5871137,92.8755262 L23.5871137,74.807951 C23.5871137,70.3732873 27.1979935,66.7660779 31.6356808,66.7660779 Z M96.4138637,92.8755262 C96.4138637,97.3105258 92.802648,100.917399 88.3633418,100.917399 C83.9249978,100.917399 80.3147748,97.3105103 80.3147748,92.8755262 L80.3147748,74.807951 C80.3147748,70.3729669 83.9249978,66.7660779 88.3633418,66.7660779 C92.802648,66.7660779 96.4138637,70.3729515 96.4138637,74.807951 L96.4138637,92.8755262 Z" id="Shape"></path>
        </g>
    </g>
</svg>