<?xml version="1.0" encoding="UTF-8"?>
<svg width="120px" height="120px" viewBox="0 0 120 120" version="1.1" xmlns="http://www.w3.org/2000/svg" xmlns:xlink="http://www.w3.org/1999/xlink">
    <!-- Generator: Sketch 44.1 (41455) - http://www.bohemiancoding.com/sketch -->
    <title>laptop</title>
    <desc>Created with Sketch.</desc>
    <defs></defs>
    <g id="UI-Kit" stroke="none" stroke-width="1" fill="none" fill-rule="evenodd">
        <g id="laptop" fill-rule="nonzero" fill="#333333">
            <path d="M18.0955955,31.5624979 C18.0955955,27.6975259 21.2349388,24.55 25.0910405,24.55 L94.9091099,24.55 C98.7652044,24.55 101.904555,27.6975295 101.904555,31.5624979 L101.904555,81.4250041 L106.909179,81.4250041 C107.729146,81.4251611 108.45,82.1478447 108.45,82.9687538 L108.45,87.3437524 C108.45,91.8146581 104.824105,95.45 100.363647,95.45 L19.636503,95.45 C15.1760456,95.45 11.5501503,91.8146581 11.5501503,87.3437524 L11.5502359,82.9775284 C11.5348289,82.1875424 12.1869252,81.4112668 13.0910578,81.4250041 L18.0955955,81.4250041 L18.0955955,31.5624979 Z M98.82274,31.5624979 C98.82274,29.3680932 97.096643,27.6374993 94.9091099,27.6374993 L25.0910405,27.6374993 C22.9035143,27.6374993 21.1774105,29.3680972 21.1774105,31.5624979 L21.1774105,81.4250041 L98.82274,81.4250041 L98.82274,31.5624979 Z M14.6319653,87.3437524 C14.6319653,90.1440944 16.8446071,92.3625007 19.636503,92.3625007 L100.363647,92.3625007 C103.155543,92.3625007 105.368185,90.1440944 105.368185,87.3437524 L105.368185,84.5125034 L14.6319653,84.5125034 L14.6319653,87.3437524 Z" id="Shape"></path>
        </g>
    </g>
</svg>