<?xml version="1.0" encoding="UTF-8"?>
<svg width="120px" height="120px" viewBox="0 0 120 120" version="1.1" xmlns="http://www.w3.org/2000/svg" xmlns:xlink="http://www.w3.org/1999/xlink">
    <!-- Generator: Sketch 44.1 (41455) - http://www.bohemiancoding.com/sketch -->
    <title>smartphone</title>
    <desc>Created with Sketch.</desc>
    <defs></defs>
    <g id="UI-Kit" stroke="none" stroke-width="1" fill="none" fill-rule="evenodd">
        <g id="smartphone" fill-rule="nonzero" fill="#333333">
            <path d="M81,106 C84,106 86.5,103.5 86.5,100.5 L86.5,19.5 C86.5,16.5 84,14 81,14 L39,14 C36,14 33.5,16.5 33.5,19.5 L33.5,100.5 C33.5,103.5 36,106 39,106 L81,106 Z M36.5,34 L83.5,34 L83.5,84 L36.5,84 L36.5,34 Z M39,17 L81,17 C82.4,17 83.5,18.1 83.5,19.5 L83.5,31 L36.5,31 L36.5,19.5 C36.5,18.1 37.6,17 39,17 Z M36.5,100.5 L36.5,87 L83.5,87 L83.5,100.5 C83.5,101.9 82.4,103 81,103 L39,103 C37.6,103 36.5,101.9 36.5,100.5 Z" id="Shape"></path>
            <path d="M58,25 L62,25 C62.8,25 63.5,24.3 63.5,23.5 C63.5,22.7 62.8,22 62,22 L58,22 C57.2,22 56.5,22.7 56.5,23.5 C56.5,24.3 57.2,25 58,25 Z" id="Shape"></path>
            <path d="M56,97 L64,97 C64.8,97 65.5,96.3 65.5,95.5 C65.5,94.7 64.8,94 64,94 L56,94 C55.2,94 54.5,94.7 54.5,95.5 C54.5,96.3 55.2,97 56,97 Z" id="Shape"></path>
        </g>
    </g>
</svg>