<?xml version="1.0" encoding="UTF-8"?>
<svg width="120px" height="120px" viewBox="0 0 120 120" version="1.1" xmlns="http://www.w3.org/2000/svg" xmlns:xlink="http://www.w3.org/1999/xlink">
    <!-- Generator: Sketch 44.1 (41455) - http://www.bohemiancoding.com/sketch -->
    <title>printer</title>
    <desc>Created with Sketch.</desc>
    <defs></defs>
    <g id="UI-Kit" stroke="none" stroke-width="1" fill="none" fill-rule="evenodd">
        <g id="printer" fill-rule="nonzero" fill="#333333">
            <path d="M99.6893749,50.9575 L92.2418749,50.9575 L92.2418749,18.05125 C92.2418749,17.1948924 91.5469825,16.5 90.6906249,16.5 L29.3093749,16.5 C28.4530173,16.5 27.7581249,17.1948924 27.7581249,18.05125 L27.7581249,50.95875 L20.3106249,50.95875 C13.1784559,50.95875 7.3756249,56.7619537 7.3756249,63.89375 L7.3756249,90.97 C7.3756249,98.102169 13.1788286,103.905 20.3106249,103.905 L99.6893749,103.905 C106.821544,103.905 112.624375,98.1017963 112.624375,90.97 L112.624375,63.8936656 C112.625578,56.7612962 106.822155,50.9575 99.6893749,50.9575 Z M89.1393749,19.6025 L89.1393749,50.95875 L30.8606249,50.95875 L30.8606249,19.6025 L89.1393749,19.6025 Z M28.1681249,100.8025 L28.1681249,81.66125 C28.1681249,80.1838576 29.3694825,78.9825 30.8468749,78.9825 L89.1506249,78.9825 C90.6280173,78.9825 91.8293749,80.1838576 91.8293749,81.66125 L91.8293749,100.8025 L28.1681249,100.8025 Z M99.6906249,100.8025 L94.9318749,100.8025 L94.9318749,81.66125 C94.9318749,78.4744455 92.3377857,75.88 89.1506249,75.88 L30.8468749,75.88 C27.6592673,75.88 25.0656249,78.4736424 25.0656249,81.66125 L25.0656249,100.8025 L20.3118749,100.8025 C14.8899036,100.8025 10.4793749,96.3915635 10.4793749,90.97 L10.4793749,63.89375 C10.4793749,58.4713576 14.8894825,54.06125 20.3118749,54.06125 L99.6906249,54.06125 C105.112596,54.06125 109.523125,58.4721865 109.523125,63.89375 L109.523125,90.97 C109.523125,96.3919713 105.112188,100.8025 99.6906249,100.8025 Z" id="Shape"></path>
        </g>
    </g>
</svg>