<?xml version="1.0" encoding="UTF-8"?>
<svg width="120px" height="120px" viewBox="0 0 120 120" version="1.1" xmlns="http://www.w3.org/2000/svg" xmlns:xlink="http://www.w3.org/1999/xlink">
    <!-- Generator: Sketch 44.1 (41455) - http://www.bohemiancoding.com/sketch -->
    <title>toner</title>
    <desc>Created with Sketch.</desc>
    <defs></defs>
    <g id="UI-Kit" stroke="none" stroke-width="1" fill="none" fill-rule="evenodd">
        <g id="toner" fill-rule="nonzero" fill="#333333">
            <path d="M72.6416039,16.95 L32,16.95 C28.9395281,16.95 26.45,19.4395281 26.45,22.5 L26.45,66.95 L20,66.95 C19.1441479,66.95 18.45,67.6439082 18.45,68.5 L18.45,90.5 C18.45,91.3560918 19.1441479,92.05 20,92.05 L26.45,92.05 L26.45,98.5 C26.45,101.560472 28.9395281,104.05 32,104.05 L88,104.05 C91.0604719,104.05 93.55,101.560472 93.55,98.5 L93.55,92.05 L100,92.05 C100.856472,92.05 101.55,91.3564719 101.55,90.5 L101.55,68.5 C101.55,67.6435281 100.856472,66.95 100,66.95 L93.55,66.95 L93.55,37.8583961 L72.6416039,16.95 Z M90.2583961,38.95 L74,38.95 C72.6474719,38.95 71.55,37.8525281 71.55,36.5 L71.55,20.2416039 L90.2583961,38.95 Z M29.55,22.5 C29.55,21.1474719 30.6474719,20.05 32,20.05 L68.45,20.05 L68.45,36.5 C68.45,39.5604719 70.9395281,42.05 74,42.05 L90.45,42.05 L90.45,66.95 L29.55,66.95 L29.55,22.5 Z M90.45,98.5 C90.45,99.8525281 89.3525281,100.95 88,100.95 L32,100.95 C30.6474719,100.95 29.55,99.8525281 29.55,98.5 L29.55,92.05 L90.45,92.05 L90.45,98.5 Z M21.55,88.95 L21.55,70.05 L98.45,70.05 L98.45,88.95 L21.55,88.95 Z M77,52.95 L43,52.95 C42.1441479,52.95 41.45,53.6439082 41.45,54.5 C41.45,55.3560918 42.1441479,56.05 43,56.05 L77,56.05 C77.8564719,56.05 78.55,55.3564719 78.55,54.5 C78.55,53.6435281 77.8564719,52.95 77,52.95 Z M43,42.05 L55,42.05 C55.8558521,42.05 56.55,41.3560918 56.55,40.5 C56.55,39.6439082 55.8558521,38.95 55,38.95 L43,38.95 C42.1441479,38.95 41.45,39.6439082 41.45,40.5 C41.45,41.3560918 42.1441479,42.05 43,42.05 Z" id="Shape"></path>
        </g>
    </g>
</svg>